<?xml version="1.0" encoding="UTF-8"?>
<svg xmlns="http://www.w3.org/2000/svg" xmlns:xlink="http://www.w3.org/1999/xlink" width="48" height="48" viewBox="0 0 48 48">
<path fill-rule="nonzero" fill="rgb(100%, 100%, 100%)" fill-opacity="1" d="M 24 4.710938 C 18.539062 4.699219 13.296875 6.863281 9.4375 10.722656 C 5.578125 14.585938 3.414062 19.824219 3.429688 25.285156 C 3.429688 29.148438 4.515625 32.941406 6.570312 36.214844 L 23.71875 14.039062 C 23.84375 13.882812 24.152344 13.882812 24.273438 14.039062 L 31.4375 23.300781 L 26.308594 23.300781 L 26.417969 23.710938 L 31.753906 23.710938 L 33.265625 25.660156 L 26.96875 25.660156 L 27.144531 26.300781 L 33.761719 26.300781 L 35.09375 28.023438 L 27.625 28.023438 L 27.855469 28.851562 L 35.730469 28.851562 L 36.921875 30.382812 L 28.285156 30.382812 L 28.566406 31.390625 L 37.695312 31.390625 L 38.742188 32.738281 L 28.941406 32.738281 L 29.253906 33.851562 L 39.601562 33.851562 L 40.566406 35.097656 L 29.601562 35.097656 L 29.914062 36.210938 L 41.429688 36.210938 C 43.480469 32.9375 44.570312 29.152344 44.570312 25.285156 C 44.582031 19.824219 42.417969 14.585938 38.558594 10.722656 C 34.699219 6.863281 29.457031 4.699219 24 4.710938 M 30.261719 37.457031 L 30.574219 38.574219 L 39.703125 38.574219 C 40 38.222656 40.308594 37.832031 40.585938 37.457031 Z M 30.921875 39.820312 L 31.230469 40.933594 L 37.339844 40.933594 C 37.738281 40.59375 38.171875 40.199219 38.558594 39.820312 Z M 31.578125 42.179688 L 31.890625 43.289062 L 33.953125 43.289062 C 34.5625 42.941406 35.128906 42.585938 35.738281 42.179688 Z M 31.578125 42.179688 "/>
</svg>
